<svg width="372" height="372" viewBox="0 0 372 372" fill="none" xmlns="http://www.w3.org/2000/svg">
<g clip-path="url(#clip0_52_65)">
<path d="M58.125 238.312V366.188" stroke="#1F2937" stroke-width="8" stroke-linecap="round" stroke-linejoin="round"/>
<path d="M176.177 185.07L150.893 162.634L171.934 134.676L208.262 86.3737" stroke="#1F2937" stroke-width="8" stroke-linecap="round" stroke-linejoin="round"/>
<path d="M255.576 119.447L261.853 123.864L218.318 185.07" stroke="#1F2937" stroke-width="8" stroke-linecap="round" stroke-linejoin="round"/>
<path d="M208.262 86.3737L230.64 102.3L229.245 103.695C229.245 103.695 215.062 116.599 209.541 122.992C208.211 124.598 207.538 126.646 207.657 128.727C207.775 130.808 208.677 132.767 210.18 134.211C211.767 135.313 213.653 135.904 215.586 135.904C217.518 135.904 219.404 135.313 220.991 134.211L245.752 114.681L265.05 106.834L283.766 95.5575L308.062 91.3725" stroke="#1F2937" stroke-width="8" stroke-linecap="round" stroke-linejoin="round"/>
<path d="M297.251 50.8012L276.675 54.6375H242.149C239.048 54.6395 235.954 54.9314 232.907 55.5094L224.072 57.195C220.531 57.8889 217.181 59.336 214.249 61.4381L197.218 73.7606C189.98 78.9862 184.295 86.0774 180.769 94.2787L178.327 100.091C176.227 104.891 174.893 109.99 174.375 115.204L172.806 133.281" stroke="#1F2937" stroke-width="8" stroke-linecap="round" stroke-linejoin="round"/>
<path d="M322.361 88.4663L308.062 90.8494L296.902 44.4075L312.771 39.1181" stroke="#1F2937" stroke-width="8" stroke-linecap="round" stroke-linejoin="round"/>
<path d="M364.909 5.8125L315.444 30.5156L327.825 92.3606L364.909 80.0381" stroke="#1F2937" stroke-width="8" stroke-linecap="round" stroke-linejoin="round"/>
<path d="M186 160.658L203.438 166.47L209.25 137.408" stroke="#1F2937" stroke-width="8" stroke-linecap="round" stroke-linejoin="round"/>
<path d="M156.938 203.438H238.312" stroke="#1F2937" stroke-width="8" stroke-linecap="round" stroke-linejoin="round"/>
<path d="M127.875 156.938H107.88C106.887 156.942 105.911 157.2 105.046 157.689C104.181 158.177 103.456 158.879 102.939 159.727L58.125 238.312H331.312L292.252 160.018C291.758 159.09 291.022 158.313 290.121 157.771C289.22 157.228 288.189 156.94 287.138 156.938H273.188" stroke="#1F2937" stroke-width="8" stroke-linecap="round" stroke-linejoin="round"/>
<path d="M331.312 238.312V366.188" stroke="#1F2937" stroke-width="8" stroke-linecap="round" stroke-linejoin="round"/>
<path d="M194.719 271.792V295.042" stroke="#1F2937" stroke-width="8" stroke-linecap="round" stroke-linejoin="round"/>
<path d="M172.631 287.893L194.719 295.042" stroke="#1F2937" stroke-width="8" stroke-linecap="round" stroke-linejoin="round"/>
<path d="M181.059 313.875L194.719 295.042" stroke="#1F2937" stroke-width="8" stroke-linecap="round" stroke-linejoin="round"/>
<path d="M208.378 313.875L194.719 295.042" stroke="#1F2937" stroke-width="8" stroke-linecap="round" stroke-linejoin="round"/>
<path d="M216.806 287.893L194.719 295.042" stroke="#1F2937" stroke-width="8" stroke-linecap="round" stroke-linejoin="round"/>
<path d="M113.925 296.438V319.688" stroke="#1F2937" stroke-width="8" stroke-linecap="round" stroke-linejoin="round"/>
<path d="M91.7794 312.48L113.925 319.687" stroke="#1F2937" stroke-width="8" stroke-linecap="round" stroke-linejoin="round"/>
<path d="M100.266 338.52L113.925 319.688" stroke="#1F2937" stroke-width="8" stroke-linecap="round" stroke-linejoin="round"/>
<path d="M127.584 338.52L113.925 319.688" stroke="#1F2937" stroke-width="8" stroke-linecap="round" stroke-linejoin="round"/>
<path d="M136.012 312.48L113.925 319.687" stroke="#1F2937" stroke-width="8" stroke-linecap="round" stroke-linejoin="round"/>
<path d="M275.513 296.438V319.688" stroke="#1F2937" stroke-width="8" stroke-linecap="round" stroke-linejoin="round"/>
<path d="M253.425 312.48L275.513 319.687" stroke="#1F2937" stroke-width="8" stroke-linecap="round" stroke-linejoin="round"/>
<path d="M261.853 338.52L275.513 319.688" stroke="#1F2937" stroke-width="8" stroke-linecap="round" stroke-linejoin="round"/>
<path d="M289.172 338.52L275.513 319.688" stroke="#1F2937" stroke-width="8" stroke-linecap="round" stroke-linejoin="round"/>
<path d="M297.658 312.48L275.513 319.687" stroke="#1F2937" stroke-width="8" stroke-linecap="round" stroke-linejoin="round"/>
<path d="M101.7 61.0016L87.15 75.5512L101.7 90.1008L116.249 75.5512L101.7 61.0016Z" stroke="#1F2937" stroke-width="8" stroke-linecap="round" stroke-linejoin="round"/>
<path d="M40.6875 116.25C43.8977 116.25 46.5 113.648 46.5 110.438C46.5 107.227 43.8977 104.625 40.6875 104.625C37.4773 104.625 34.875 107.227 34.875 110.438C34.875 113.648 37.4773 116.25 40.6875 116.25Z" fill="#1F2937"/>
<path d="M145.312 46.5C148.523 46.5 151.125 43.8977 151.125 40.6875C151.125 37.4773 148.523 34.875 145.312 34.875C142.102 34.875 139.5 37.4773 139.5 40.6875C139.5 43.8977 142.102 46.5 145.312 46.5Z" fill="#1F2937"/>
<path d="M34.875 174.375C41.2953 174.375 46.5 169.17 46.5 162.75C46.5 156.33 41.2953 151.125 34.875 151.125C28.4547 151.125 23.25 156.33 23.25 162.75C23.25 169.17 28.4547 174.375 34.875 174.375Z" stroke="#1F2937" stroke-width="8" stroke-miterlimit="10"/>
<path d="M342.938 162.75C346.148 162.75 348.75 160.148 348.75 156.938C348.75 153.727 346.148 151.125 342.938 151.125C339.727 151.125 337.125 153.727 337.125 156.938C337.125 160.148 339.727 162.75 342.938 162.75Z" fill="#1F2937"/>
</g>
<defs>
<clipPath id="clip0_52_65">
<rect width="372" height="372" fill="white"/>
</clipPath>
</defs>
</svg>
