<svg width="62" height="62" viewBox="0 0 62 62" fill="none" xmlns="http://www.w3.org/2000/svg">
<rect width="62" height="62" rx="6" fill="#FFFCED"/>
<path d="M43.1965 58.1251H18.8034C17.201 58.1225 15.6649 57.4848 14.5318 56.3517C13.3987 55.2186 12.761 53.6825 12.7584 52.0801V43.2354C11.8459 42.8567 11.0666 42.2151 10.5197 41.3923C9.97286 40.5694 9.68316 39.6024 9.68748 38.6144V23.5697C9.67195 22.2678 10.173 21.0128 11.0808 20.0795C11.9887 19.1463 13.2294 18.6108 14.5312 18.5904H15.7422C15.9991 18.5904 16.2455 18.6924 16.4272 18.8741C16.6089 19.0558 16.7109 19.3022 16.7109 19.5591C16.7109 19.816 16.6089 20.0625 16.4272 20.2441C16.2455 20.4258 15.9991 20.5279 15.7422 20.5279H14.5312C13.7432 20.5482 12.9953 20.8795 12.4508 21.4494C11.9062 22.0194 11.6094 22.7816 11.625 23.5697V36.8804H46.2384C46.4953 36.8804 46.7418 36.9824 46.9234 37.1641C47.1051 37.3458 47.2072 37.5922 47.2072 37.8491C47.2072 38.106 47.1051 38.3525 46.9234 38.5341C46.7418 38.7158 46.4953 38.8179 46.2384 38.8179H11.625C11.6569 39.5721 11.9754 40.2857 12.5155 40.8132C13.0555 41.3406 13.7765 41.6422 14.5312 41.6563H47.4687C48.2567 41.636 49.0047 41.3047 49.5492 40.7347C50.0937 40.1648 50.3906 39.4025 50.375 38.6144V23.5697C50.3906 22.7816 50.0937 22.0194 49.5492 21.4494C49.0047 20.8795 48.2567 20.5482 47.4687 20.5279H47.275C47.1201 20.5285 46.9672 20.4919 46.8294 20.4213L41.6562 26.321C42.2725 26.7415 42.7386 27.3476 42.9868 28.0512C43.235 28.7548 43.2523 29.5193 43.0363 30.2334C42.8202 30.9475 42.382 31.5741 41.7854 32.0221C41.1887 32.4701 40.4648 32.7161 39.7187 32.7244H22.3587C21.6885 32.7175 21.0343 32.5186 20.4736 32.1514C19.913 31.7842 19.4692 31.264 19.195 30.6524C18.9208 30.0408 18.8277 29.3635 18.9265 28.7005C19.0254 28.0376 19.3121 27.4169 19.7528 26.9119L18.8712 26.1369C18.4621 25.7751 18.1341 25.3308 17.9087 24.8333C17.6833 24.3358 17.5656 23.7962 17.5634 23.2501C17.5407 22.1411 17.9387 21.0646 18.6775 20.2372L31.7362 5.38631C32.4379 4.54857 33.4413 4.02091 34.5292 3.91757C35.6171 3.81422 36.7019 4.1435 37.5487 4.83412L47.4687 13.5626C48.1562 14.2014 48.6042 15.0564 48.7382 15.9852C48.8721 16.9141 48.684 17.8608 48.205 18.6679C49.3596 18.8654 50.4065 19.4667 51.1589 20.3646C51.9112 21.2624 52.3201 22.3984 52.3125 23.5697V38.6144C52.3184 39.6002 52.0316 40.5656 51.4883 41.3882C50.9451 42.2109 50.1699 42.8537 49.2609 43.2354V52.0801C49.2597 52.8752 49.1018 53.6622 48.7963 54.3964C48.4909 55.1305 48.0438 55.7972 47.4807 56.3585C46.9176 56.9199 46.2494 57.3648 45.5143 57.6679C44.7792 57.971 43.9917 58.1263 43.1965 58.1251ZM14.6959 43.5938V52.0801C14.6959 53.1694 15.1287 54.2142 15.899 54.9845C16.6693 55.7548 17.714 56.1876 18.8034 56.1876H43.1965C44.2859 56.1876 45.3307 55.7548 46.101 54.9845C46.8713 54.2142 47.3041 53.1694 47.3041 52.0801V43.5938H14.6959ZM37.694 30.7869H39.6315C39.9856 30.7816 40.3276 30.6575 40.6026 30.4344C40.8777 30.2113 41.0697 29.9023 41.1479 29.5569C41.2262 29.2116 41.1861 28.8499 41.034 28.5301C40.882 28.2103 40.6269 27.9509 40.3097 27.7935L37.694 30.7869ZM27.1347 30.7869H35.1075L46.2094 18.1932C46.6205 17.7763 46.851 17.2142 46.851 16.6286C46.851 16.0431 46.6205 15.481 46.2094 15.0641L36.2894 6.34537C35.8272 5.987 35.2422 5.82564 34.6616 5.8964C34.0811 5.96715 33.5519 6.2643 33.1894 6.72318L20.1306 21.516C19.7002 21.9883 19.4738 22.6116 19.5009 23.2501C19.5014 23.5228 19.5595 23.7923 19.6714 24.0411C19.7832 24.2898 19.9463 24.5121 20.15 24.6935L27.1347 30.7869ZM21.2059 28.1519C20.9337 28.4394 20.7842 28.8217 20.7894 29.2176C20.7919 29.633 20.9581 30.0307 21.2518 30.3245C21.5456 30.6182 21.9433 30.7844 22.3587 30.7869H24.2187L21.2059 28.1519ZM34.1387 53.0488H27.8612C27.0905 53.0488 26.3512 52.7426 25.8062 52.1976C25.2612 51.6526 24.955 50.9133 24.955 50.1426V49.9488C24.955 49.178 25.2612 48.4388 25.8062 47.8938C26.3512 47.3487 27.0905 47.0426 27.8612 47.0426H34.1387C34.9095 47.0426 35.6487 47.3487 36.1938 47.8938C36.7388 48.4388 37.045 49.178 37.045 49.9488V50.1426C37.045 50.9133 36.7388 51.6526 36.1938 52.1976C35.6487 52.7426 34.9095 53.0488 34.1387 53.0488ZM27.8612 48.9801C27.6043 48.9801 27.3579 49.0821 27.1762 49.2638C26.9945 49.4455 26.8925 49.6919 26.8925 49.9488V50.1426C26.8925 50.3995 26.9945 50.6459 27.1762 50.8276C27.3579 51.0092 27.6043 51.1113 27.8612 51.1113H34.1387C34.3957 51.1113 34.6421 51.0092 34.8237 50.8276C35.0054 50.6459 35.1075 50.3995 35.1075 50.1426V49.9488C35.1075 49.6919 35.0054 49.4455 34.8237 49.2638C34.6421 49.0821 34.3957 48.9801 34.1387 48.9801H27.8612ZM33.0247 29.4404C32.7892 29.44 32.5619 29.3539 32.3853 29.1982L23.9862 21.8163C23.7938 21.6466 23.6765 21.4075 23.6601 21.1514C23.6438 20.8953 23.7297 20.6432 23.899 20.4504C23.9817 20.3537 24.0827 20.2742 24.1961 20.2165C24.3095 20.1588 24.4331 20.1241 24.5599 20.1142C24.6868 20.1043 24.8143 20.1195 24.9353 20.1589C25.0563 20.1983 25.1683 20.2611 25.265 20.3438L33.664 27.7257C33.8115 27.8558 33.916 28.0276 33.9634 28.2185C34.0109 28.4093 33.9991 28.6101 33.9297 28.7941C33.8603 28.9781 33.7366 29.1366 33.5749 29.2486C33.4132 29.3606 33.2213 29.4207 33.0247 29.421V29.4404ZM35.9309 26.1369C35.6954 26.1366 35.4682 26.0505 35.2915 25.8947L26.8925 18.5129C26.7125 18.34 26.6061 18.1042 26.5957 17.8548C26.5852 17.6054 26.6714 17.3616 26.8363 17.1742C27.0012 16.9868 27.2321 16.8703 27.4808 16.849C27.7295 16.8277 27.9768 16.9032 28.1712 17.0597L36.5703 24.4416C36.7628 24.6113 36.8801 24.8505 36.8964 25.1066C36.9128 25.3626 36.8268 25.6148 36.6575 25.8076C36.5685 25.9144 36.4576 26.0009 36.3322 26.0611C36.2068 26.1213 36.07 26.1537 35.9309 26.1563V26.1369ZM38.8372 22.8335C38.6017 22.8332 38.3744 22.7471 38.1978 22.5913L29.7987 15.2094C29.6063 15.0397 29.489 14.8006 29.4726 14.5445C29.4563 14.2884 29.5422 14.0363 29.7115 13.8435C29.8813 13.651 30.1204 13.5337 30.3765 13.5174C30.6326 13.501 30.8847 13.587 31.0775 13.7563L39.4669 21.1382C39.6593 21.3079 39.7766 21.547 39.793 21.8031C39.8093 22.0592 39.7234 22.3113 39.554 22.5041C39.4633 22.6075 39.3515 22.6903 39.2262 22.7471C39.101 22.8039 38.965 22.8333 38.8275 22.8335H38.8372ZM41.7434 19.5301C41.5079 19.5297 41.2807 19.4436 41.104 19.2879L32.7147 11.906C32.5222 11.7363 32.4049 11.4971 32.3886 11.2411C32.3722 10.985 32.4581 10.7329 32.6275 10.5401C32.7972 10.3476 33.0363 10.2303 33.2924 10.2139C33.5485 10.1976 33.8006 10.2835 33.9934 10.4529L42.3828 17.8347C42.5753 18.0044 42.6926 18.2436 42.7089 18.4997C42.7253 18.7558 42.6393 19.0079 42.47 19.2007C42.3781 19.3052 42.2648 19.3888 42.1378 19.4456C42.0107 19.5025 41.8729 19.5313 41.7337 19.5301H41.7434Z" fill="#36352F"/>
</svg>
