<svg width="62" height="62" viewBox="0 0 62 62" fill="none" xmlns="http://www.w3.org/2000/svg">
<rect width="62" height="62" rx="6" fill="#FFFCED"/>
<g clip-path="url(#clip0_71_390)">
<path d="M20.4446 24.0047C21.1363 23.9678 24.5831 23.2674 25.1488 23.1095L26.4944 30.7413C25.9074 30.7733 22.3734 31.4902 21.7069 31.6772C18.3056 32.6304 16.4136 35.4127 15.719 36.5761L13.0278 21.3125C14.0596 22.1921 16.9174 24.1907 20.4446 24.0047Z" fill="#E6EBF2"/>
<path d="M25.1487 23.1095L27.0571 22.7734C27.5631 22.6841 28.0839 22.7995 28.5048 23.0942C28.9258 23.3889 29.2124 23.8387 29.3017 24.3447L29.975 28.1606C30.0643 28.6666 29.9489 29.1874 29.6542 29.6083C29.3595 30.0292 28.9097 30.3159 28.4037 30.4052L26.4952 30.7413M38.7499 42.625H55.1916V61.0312H38.7499V42.625Z" fill="#64788C"/>
<path d="M38.75 42.625H55.1916V46.5H38.75V42.625Z" fill="#A1BDE6"/>
<path d="M55.1917 17.4375V24.5074C55.1917 24.9473 55.0415 25.3745 54.7673 25.7174L51.8989 29.3037C51.7174 29.5307 51.4871 29.714 51.2252 29.8399C50.9632 29.9658 50.6763 30.0312 50.3857 30.0312H41.8336C41.0684 30.0313 40.3205 30.2578 39.6839 30.6823L34.8479 33.9062L27.0979 35.8438L28.0667 39.7188L34.8479 38.75L40.6604 35.8438V42.625H53.2542V35.8438L58.5145 27.0766C58.8758 26.4743 59.0667 25.7852 59.0667 25.0829V17.4375H55.1917Z" fill="#759ACC"/>
<path d="M46.4729 30.0312C48.613 30.0312 50.3479 28.2964 50.3479 26.1562C50.3479 24.0161 48.613 22.2812 46.4729 22.2812C44.3328 22.2812 42.5979 24.0161 42.5979 26.1562C42.5979 28.2964 44.3328 30.0312 46.4729 30.0312Z" fill="#759ACC"/>
<path d="M13.5625 52.3125C15.7026 52.3125 17.4375 50.5776 17.4375 48.4375C17.4375 46.2974 15.7026 44.5625 13.5625 44.5625C11.4224 44.5625 9.6875 46.2974 9.6875 48.4375C9.6875 50.5776 11.4224 52.3125 13.5625 52.3125Z" fill="#759ACC"/>
<path d="M17.4375 52.3125H7.75C7.23614 52.3125 6.74333 52.1084 6.37998 51.745C6.01663 51.3817 5.8125 50.8889 5.8125 50.375V41.6562H1.9375V50.375C1.9375 51.9166 2.54989 53.395 3.63994 54.4851C4.73 55.5751 6.20843 56.1875 7.75 56.1875V61.0312H20.3438V55.2188C20.3438 54.448 20.0376 53.7087 19.4925 53.1637C18.9475 52.6187 18.2083 52.3125 17.4375 52.3125Z" fill="#759ACC"/>
<path d="M27.125 52.3125C29.2651 52.3125 31 50.5776 31 48.4375C31 46.2974 29.2651 44.5625 27.125 44.5625C24.9849 44.5625 23.25 46.2974 23.25 48.4375C23.25 50.5776 24.9849 52.3125 27.125 52.3125Z" fill="#759ACC"/>
<path d="M31 52.3125H23.25C22.4792 52.3125 21.74 52.6187 21.195 53.1637C20.6499 53.7088 20.3438 54.448 20.3438 55.2188V61.0312H33.9062V55.2188C33.9062 54.448 33.6001 53.7088 33.055 53.1637C32.51 52.6187 31.7708 52.3125 31 52.3125Z" fill="#759ACC"/>
<path d="M44.5625 1.9375H60.0625V17.4375H44.5625V1.9375Z" fill="#E6EBF2"/>
<path d="M52.3125 11.625C53.9176 11.625 55.2188 10.3238 55.2188 8.71875C55.2188 7.11367 53.9176 5.8125 52.3125 5.8125C50.7074 5.8125 49.4062 7.11367 49.4062 8.71875C49.4062 10.3238 50.7074 11.625 52.3125 11.625Z" fill="#759ACC"/>
<path d="M53.2812 11.625H51.3438C50.316 11.625 49.3304 12.0333 48.6037 12.76C47.877 13.4867 47.4688 14.4723 47.4688 15.5V17.4375H57.1562V15.5C57.1562 14.4723 56.748 13.4867 56.0213 12.76C55.2946 12.0333 54.309 11.625 53.2812 11.625Z" fill="#759ACC"/>
<path d="M60.0624 0.96875H44.5624C44.3055 0.96875 44.0591 1.07081 43.8774 1.25249C43.6957 1.43417 43.5937 1.68057 43.5937 1.9375V17.4375C43.5937 17.6944 43.6957 17.9408 43.8774 18.1225C44.0591 18.3042 44.3055 18.4062 44.5624 18.4062H54.2228V24.5084C54.2227 24.7281 54.1479 24.9413 54.0106 25.1129L51.1412 28.6992C51.0508 28.8128 50.9359 28.9045 50.805 28.9674C50.6742 29.0303 50.5308 29.0628 50.3856 29.0625H50.3226C50.9637 28.229 51.313 27.2078 51.3165 26.1562C51.3165 23.4854 49.1436 21.3125 46.4728 21.3125C43.802 21.3125 41.629 23.4854 41.629 26.1562C41.629 27.2509 42.0078 28.2507 42.623 29.0625H41.8344C40.8744 29.0625 39.9444 29.3434 39.1471 29.8762L34.4506 33.0072L28.1557 34.5805L27.617 31.527L28.5722 31.3584C29.3307 31.2233 30.0047 30.793 30.4465 30.1618C30.8883 29.5306 31.0619 28.75 30.9292 27.9911L30.2569 24.1761C30.1225 23.4172 29.6923 22.7426 29.061 22.3005C28.4296 21.8585 27.6487 21.685 26.8895 21.8182L24.9811 22.1553L24.984 22.1698C24.953 22.1757 24.921 22.1669 24.89 22.1757C24.2942 22.3413 20.955 23.0049 20.394 23.0359C16.922 23.218 14.1766 21.017 13.6574 20.5743C13.5054 20.4453 13.3174 20.3662 13.1189 20.3479C12.9204 20.3296 12.7211 20.3729 12.5481 20.4719C12.3751 20.5709 12.2368 20.7208 12.152 20.9012C12.0673 21.0816 12.0402 21.2837 12.0744 21.4801L14.7656 36.7447C14.8008 36.9386 14.8942 37.1172 15.0333 37.2567C15.1725 37.3962 15.3508 37.4901 15.5446 37.5259C15.7384 37.5616 15.9384 37.5375 16.1182 37.4568C16.298 37.3761 16.4489 37.2426 16.551 37.0741C17.3396 35.7537 19.092 33.419 21.9692 32.612C22.4555 32.4754 24.5015 32.0559 25.7047 31.8409L26.3141 35.2945C26.1581 35.5163 26.0874 35.7953 26.1581 36.0792L27.1269 39.9542C27.1839 40.1874 27.3259 40.391 27.5252 40.525C27.7244 40.6591 27.9666 40.7139 28.2041 40.6788L34.9854 39.71C35.088 39.6945 35.1878 39.6635 35.2818 39.617L39.6925 37.4122V41.6562H38.7499C38.493 41.6562 38.2466 41.7583 38.0649 41.94C37.8832 42.1217 37.7812 42.3681 37.7812 42.625V61.0312H39.7187V47.4688H54.2228V61.0312H56.1603V42.625C56.1603 42.3681 56.0582 42.1217 55.8766 41.94C55.6949 41.7583 55.4485 41.6562 55.1915 41.6562H54.2228V36.1121L59.3455 27.5755C59.7969 26.8224 60.0354 25.9609 60.0353 25.0829V18.4062H60.0624C60.3194 18.4062 60.5658 18.3042 60.7474 18.1225C60.9291 17.9408 61.0312 17.6944 61.0312 17.4375V1.9375C61.0312 1.68057 60.9291 1.43417 60.7474 1.25249C60.5658 1.07081 60.3194 0.96875 60.0624 0.96875ZM21.4461 30.7452C19.1327 31.3933 17.4345 32.8135 16.2759 34.1552L14.3839 23.4244C15.8729 24.2662 18.0041 25.0964 20.4958 24.9734C21.0654 24.9424 23.0814 24.5539 24.3708 24.2807L25.3676 29.9324C24.0152 30.1717 21.9324 30.6096 21.4461 30.7452ZM26.2715 23.8962L27.2257 23.7286C27.3511 23.7064 27.4796 23.7092 27.6039 23.7367C27.7282 23.7643 27.8459 23.8161 27.9501 23.8891C28.0544 23.9622 28.1433 24.0551 28.2116 24.1625C28.28 24.2699 28.3265 24.3898 28.3485 24.5152L29.0208 28.3301C29.065 28.5831 29.0072 28.8434 28.8599 29.0538C28.7126 29.2643 28.488 29.4078 28.2351 29.4529L27.2809 29.6215L26.2715 23.8962ZM48.4374 16.4688V15.5C48.4374 13.8977 49.7414 12.5938 51.3437 12.5938H53.2812C54.8835 12.5938 56.1874 13.8977 56.1874 15.5V16.4688H48.4374ZM50.3749 8.71875C50.3749 7.65022 51.2439 6.78125 52.3124 6.78125C53.381 6.78125 54.2499 7.65022 54.2499 8.71875C54.2499 9.78728 53.381 10.6562 52.3124 10.6562C51.2439 10.6562 50.3749 9.78728 50.3749 8.71875ZM46.4728 23.25C48.0751 23.25 49.379 24.5539 49.379 26.1562C49.379 27.7586 48.0751 29.0625 46.4728 29.0625C44.8705 29.0625 43.5665 27.7586 43.5665 26.1562C43.5665 24.5539 44.8705 23.25 46.4728 23.25ZM54.2228 45.5312H39.7187V43.5938H54.2228V45.5312ZM58.0978 25.0829C58.0978 25.6099 57.9544 26.1272 57.6841 26.5786L52.4238 35.3458C52.3333 35.4965 52.2855 35.6689 52.2853 35.8447V41.6572H41.629V35.8447C41.6291 35.6796 41.587 35.5171 41.5066 35.3729C41.4263 35.2286 41.3103 35.1073 41.1699 35.0204C41.0294 34.9335 40.8691 34.884 40.7041 34.8765C40.5391 34.869 40.375 34.9039 40.2273 34.9777L34.5552 37.8142L28.795 38.6376L28.2729 36.55L35.0832 34.8469C35.1911 34.8205 35.2934 34.7753 35.3855 34.7132L40.2224 31.4892C40.699 31.1692 41.2604 30.9989 41.8344 31H50.3866C50.8225 31.0013 51.2532 30.9038 51.6461 30.7149C52.0391 30.526 52.3841 30.2505 52.6554 29.9092L55.5238 26.3238C55.9354 25.8082 56.1599 25.1682 56.1603 24.5084V18.4062H58.0978V25.0829ZM59.0937 16.4688H58.1249V15.5C58.1249 13.5625 56.974 11.8992 55.3262 11.1251C55.8795 10.4448 56.1834 9.59565 56.1874 8.71875C56.1874 6.58169 54.4495 4.84375 52.3124 4.84375C50.1754 4.84375 48.4374 6.58169 48.4374 8.71875C48.4374 9.63228 48.7687 10.4615 49.2986 11.1251C47.6508 11.8992 46.4999 13.5625 46.4999 15.5V16.4688H45.5312V2.90625H59.0937V16.4688ZM4.5918 30.3752L9.42586 29.0741L9.92961 30.9458L5.09652 32.2468L4.5918 30.3752ZM5.42008 26.0768L5.43655 24.1393L10.1253 24.18L10.1079 26.1175L5.42008 26.0768ZM7.96789 35.4979L12.0047 33.1177L12.9889 34.7859L8.95214 37.1671L7.96789 35.4979Z" fill="black"/>
<path d="M6.78125 57.0875V61.0312H8.71875V56.1875C8.71875 55.9306 8.61669 55.6842 8.43501 55.5025C8.25333 55.3208 8.00693 55.2188 7.75 55.2188C5.07916 55.2188 2.90625 53.0458 2.90625 50.375V42.625H4.84375V50.375C4.84375 51.9773 6.14769 53.2812 7.75 53.2812H17.4375C18.506 53.2812 19.375 54.1502 19.375 55.2188V61.0312H21.3125V55.2188C21.3125 54.1502 22.1815 53.2812 23.25 53.2812H31C32.0685 53.2812 32.9375 54.1502 32.9375 55.2188V61.0312H34.875V55.2188C34.875 53.0817 33.1371 51.3438 31 51.3438H30.9748C31.6159 50.5102 31.9652 49.489 31.9688 48.4375C31.9688 45.7667 29.7958 43.5938 27.125 43.5938C24.4542 43.5938 22.2812 45.7667 22.2812 48.4375C22.2812 49.5322 22.66 50.5319 23.2752 51.3438H23.25C22.0875 51.3438 21.0548 51.8688 20.3438 52.6826C19.9836 52.2641 19.5377 51.928 19.0363 51.697C18.5348 51.466 17.9896 51.3455 17.4375 51.3438H17.4123C18.0534 50.5102 18.4027 49.489 18.4062 48.4375C18.4062 45.7667 16.2333 43.5938 13.5625 43.5938C10.8917 43.5938 8.71875 45.7667 8.71875 48.4375C8.71875 49.5322 9.09753 50.5319 9.71269 51.3438H7.75C7.21622 51.3438 6.78125 50.9097 6.78125 50.375V41.6562C6.78125 41.3993 6.67919 41.1529 6.49751 40.9712C6.31583 40.7896 6.06943 40.6875 5.8125 40.6875H1.9375C1.68057 40.6875 1.43417 40.7896 1.25249 40.9712C1.07081 41.1529 0.96875 41.3993 0.96875 41.6562V50.375C0.96875 53.786 3.49913 56.6157 6.78125 57.0875ZM27.125 45.5312C28.7273 45.5312 30.0312 46.8352 30.0312 48.4375C30.0312 50.0398 28.7273 51.3438 27.125 51.3438C25.5227 51.3438 24.2188 50.0398 24.2188 48.4375C24.2188 46.8352 25.5227 45.5312 27.125 45.5312ZM13.5625 45.5312C15.1648 45.5312 16.4688 46.8352 16.4688 48.4375C16.4688 50.0398 15.1648 51.3438 13.5625 51.3438C11.9602 51.3438 10.6562 50.0398 10.6562 48.4375C10.6562 46.8352 11.9602 45.5312 13.5625 45.5312Z" fill="black"/>
</g>
<defs>
<clipPath id="clip0_71_390">
<rect width="62" height="62" fill="white"/>
</clipPath>
</defs>
</svg>
