<svg width="62" height="62" viewBox="0 0 62 62" fill="none" xmlns="http://www.w3.org/2000/svg">
<rect width="62" height="62" rx="6" fill="#FFFCED"/>
<path d="M32.2917 40.0546V27.0475C38.0912 26.4017 42.625 21.4675 42.625 15.5C42.625 9.09333 37.4067 3.875 31 3.875C24.5933 3.875 19.375 9.09333 19.375 15.5C19.375 21.4675 23.9088 26.4017 29.7083 27.0475V40.0546C16.6625 40.2483 3.875 43.3354 3.875 49.0833C3.875 55.025 17.515 58.125 31 58.125C44.485 58.125 58.125 55.025 58.125 49.0833C58.125 43.3354 45.3375 40.2483 32.2917 40.0546ZM21.9583 15.5C21.9583 10.5142 26.0142 6.45833 31 6.45833C35.9858 6.45833 40.0417 10.5142 40.0417 15.5C40.0417 20.4858 35.9858 24.5417 31 24.5417C26.0142 24.5417 21.9583 20.4858 21.9583 15.5ZM31 55.5417C15.7971 55.5417 6.45833 51.7829 6.45833 49.0833C6.45833 46.4613 15.2804 42.8575 29.7083 42.6508V49.0833C29.7083 49.7937 30.2896 50.375 31 50.375C31.7104 50.375 32.2917 49.7937 32.2917 49.0833V42.6508C46.7196 42.8575 55.5417 46.4742 55.5417 49.0833C55.5417 51.7829 46.2029 55.5417 31 55.5417Z" fill="#36352F"/>
<path d="M32.2917 11.625C32.2917 10.9146 31.7105 10.3334 31 10.3334C28.1455 10.3334 25.8334 12.6455 25.8334 15.5C25.8334 16.2105 26.4146 16.7917 27.125 16.7917C27.8355 16.7917 28.4167 16.2105 28.4167 15.5C28.4167 14.0792 29.5792 12.9167 31 12.9167C31.7105 12.9167 32.2917 12.3355 32.2917 11.625Z" fill="black"/>
</svg>
